<?xml version="1.0" encoding="utf-8"?>
<!-- Generator: Adobe Illustrator 25.2.0, SVG Export Plug-In . SVG Version: 6.00 Build 0)  -->
<svg version="1.1" id="Layer_1" xmlns="http://www.w3.org/2000/svg" xmlns:xlink="http://www.w3.org/1999/xlink" x="0px" y="0px"
	 viewBox="0 0 100 100" enable-background="new 0 0 100 100" xml:space="preserve">
<path d="M35.74,53.1c-0.86,0-1.79,0.71-1.79,2.27s0.93,2.27,1.79,2.27s1.79-0.71,1.79-2.27S36.6,53.1,35.74,53.1z M35.74,56.1
	c-0.69,0-1.1-0.47-1.19-0.73c0.1-0.26,0.5-0.73,1.19-0.73s1.1,0.47,1.19,0.73C36.84,55.62,36.43,56.1,35.74,56.1z"/>
<path d="M66.05,55.36c0-1.56-0.93-2.27-1.79-2.27s-1.79,0.71-1.79,2.27s0.93,2.27,1.79,2.27S66.05,56.92,66.05,55.36z M63.07,55.36
	c0.1-0.26,0.5-0.73,1.19-0.73s1.1,0.47,1.19,0.73c-0.1,0.26-0.5,0.73-1.19,0.73S63.16,55.62,63.07,55.36z"/>
<path d="M74.6,14.5h10.7c1.47,0,2.85-0.57,3.89-1.61c0.98-0.98,1.55-2.28,1.61-3.66c0.06-1.45-0.48-2.84-1.52-3.92
	c-1.1-1.14-2.63-1.8-4.2-1.8H14.7c-1.47,0-2.85,0.57-3.89,1.61C9.84,6.09,9.26,7.39,9.21,8.78c-0.06,1.45,0.48,2.84,1.52,3.92
	c1.1,1.14,2.63,1.8,4.2,1.8H25.4v16.4h-0.73l-11.14-8.76c-0.45-0.36-1.07-0.42-1.58-0.17c-0.52,0.25-0.84,0.77-0.84,1.35v33.25
	c0,3.69,0.95,7.19,2.74,10.11c2.9,4.72,6.83,8.35,11.23,10.56c-4.14,4.99-6.41,11.21-6.41,17.75c0,0.83,0.67,1.5,1.5,1.5h59.67
	c0.83,0,1.5-0.67,1.5-1.5c0-6.54-2.27-12.77-6.41-17.76c4.17-2.1,7.93-5.46,10.76-9.8c2.1-3.22,3.21-6.99,3.21-10.89V23.32
	c0-0.57-0.33-1.1-0.84-1.35c-0.52-0.25-1.13-0.19-1.58,0.17l-0.27,0.21c-3.62,2.85-7.24,5.7-10.87,8.55H74.6V14.5z M71.6,30.9h-2.52
	v-0.99c0-1.44-0.61-2.74-1.58-3.67c0.57-0.71,0.92-1.6,0.92-2.58c0-0.93-0.31-1.77-0.83-2.47c0.01-0.07,0.02-0.13,0.02-0.2v-6.5
	h3.98V30.9z M61.77,19.49V6.5h2.85v12.99h-0.36h-2.12H61.77z M62.14,24.83c-0.64,0-1.17-0.52-1.17-1.17c0-0.64,0.52-1.17,1.17-1.17
	h2.12c0.64,0,1.17,0.52,1.17,1.17c0,0.65-0.52,1.17-1.17,1.17H64h-1.61H62.14z M60.31,29.92c0-1.15,0.93-2.08,2.08-2.08H64
	c1.15,0,2.08,0.93,2.08,2.08v6.79h-5.78V29.92z M87.11,7.38c0.47,0.49,0.71,1.1,0.69,1.72c-0.03,0.63-0.29,1.22-0.73,1.66
	c-0.47,0.47-1.1,0.73-1.76,0.73H73.1h-5.48v-5h17.45C85.83,6.5,86.57,6.82,87.11,7.38z M12.89,10.62c-0.47-0.49-0.71-1.1-0.69-1.72
	c0.03-0.63,0.29-1.22,0.73-1.66c0.47-0.47,1.1-0.73,1.76-0.73h44.07v5H26.9H14.93C14.17,11.5,13.43,11.18,12.89,10.62z M28.4,14.5
	h30.38v6.5c0,0.07,0.01,0.14,0.02,0.2c-0.51,0.69-0.83,1.54-0.83,2.47c0,0.98,0.35,1.87,0.92,2.58c-0.97,0.93-1.58,2.22-1.58,3.67
	v0.99H28.4V14.5z M78.29,93.5H21.71c0.04-0.59,0.11-1.18,0.18-1.76h16.18c0.83,0,1.5-0.67,1.5-1.5s-0.67-1.5-1.5-1.5H22.48
	c0.98-3.78,2.86-7.29,5.51-10.26c2.29,0.79,4.67,1.22,7.06,1.22c0.39,0,0.78-0.01,1.17-0.03c3.86-0.22,7.7-1.58,11.18-3.96
	l0.01,0.01c0.52,0.93,1.5,1.52,2.57,1.52c0,0,0.01,0,0.01,0c1.06,0,2.05-0.57,2.57-1.5l0.03-0.05c2.69,1.84,6.5,3.71,11.17,3.98
	c0.39,0.02,0.77,0.03,1.16,0.03c2.39,0,4.77-0.43,7.08-1.23C75.75,82.66,77.96,87.91,78.29,93.5z M35.74,65.56
	c-5.62,0-10.2-4.58-10.2-10.2s4.58-10.2,10.2-10.2s10.2,4.58,10.2,10.2S41.37,65.56,35.74,65.56z M45.77,63.93h8.47
	c0.3,0.36,0.63,0.69,0.97,1.01l-4.38,7.82l-0.03,0.06c0,0.01-0.01,0.01-0.01,0.02l-0.74,1.43l-0.79-1.41
	c-0.02-0.04-0.04-0.07-0.06-0.11l-4.39-7.81C45.14,64.62,45.46,64.28,45.77,63.93z M54.06,55.36c0-5.62,4.58-10.2,10.2-10.2
	s10.2,4.58,10.2,10.2s-4.58,10.2-10.2,10.2S54.06,60.99,54.06,55.36z M85.9,56.54c0,3.32-0.94,6.52-2.73,9.25
	c-4.65,7.13-12.04,11.3-19.23,10.88c-4.13-0.23-7.52-1.95-9.87-3.6l3.55-6.32c1.95,1.14,4.22,1.81,6.64,1.81
	c7.28,0,13.2-5.92,13.2-13.2s-5.92-13.2-13.2-13.2s-13.2,5.92-13.2,13.2c0,1.99,0.46,3.87,1.25,5.56h-4.61
	c0.79-1.69,1.25-3.57,1.25-5.56c0-7.28-5.92-13.2-13.2-13.2s-13.2,5.92-13.2,13.2s5.92,13.2,13.2,13.2c2.42,0,4.68-0.67,6.64-1.81
	l3.55,6.33c-2.36,1.65-5.75,3.36-9.87,3.6c-7.48,0.44-15.02-4-19.66-11.55c-1.5-2.45-2.3-5.41-2.3-8.54V26.41l9.12,7.17
	c0.26,0.21,0.59,0.32,0.93,0.32h2.75h30.41v4.31c0,0.83,0.67,1.5,1.5,1.5h8.78c0.83,0,1.5-0.67,1.5-1.5V33.9h4.02h2.75
	c0.02,0,0.04,0,0.06-0.01c0.05,0,0.1-0.01,0.15-0.02c0.05-0.01,0.1-0.01,0.14-0.02c0.05-0.01,0.09-0.03,0.14-0.04
	c0.05-0.02,0.1-0.03,0.14-0.05c0.04-0.02,0.08-0.04,0.12-0.07c0.05-0.03,0.09-0.05,0.13-0.08c0.01-0.01,0.03-0.02,0.05-0.03
	c3.05-2.39,6.09-4.78,9.12-7.17V56.54z"/>
<path d="M42.74,88.74h-0.76c-0.83,0-1.5,0.67-1.5,1.5s0.67,1.5,1.5,1.5h0.76c0.83,0,1.5-0.67,1.5-1.5S43.57,88.74,42.74,88.74z"/>
</svg>
